<?xml version="1.0" encoding="UTF-8" standalone="no"?>
<!-- Created with Inkscape (http://www.inkscape.org/) -->

<svg
   width="16"
   height="16"
   viewBox="0 0 4.2333328 4.2333328"
   version="1.1"
   id="svg5"
   inkscape:version="1.3-dev (525abead, 2022-04-19)"
   sodipodi:docname="chaveCancelado.svg"
   inkscape:export-filename="chave.svg"
   inkscape:export-xdpi="96"
   inkscape:export-ydpi="96"
   xml:space="preserve"
   xmlns:inkscape="http://www.inkscape.org/namespaces/inkscape"
   xmlns:sodipodi="http://sodipodi.sourceforge.net/DTD/sodipodi-0.dtd"
   xmlns:xlink="http://www.w3.org/1999/xlink"
   xmlns="http://www.w3.org/2000/svg"
   xmlns:svg="http://www.w3.org/2000/svg"><sodipodi:namedview
     id="namedview7"
     pagecolor="#ffffff"
     bordercolor="#000000"
     borderopacity="0.25"
     inkscape:showpageshadow="2"
     inkscape:pageopacity="0.0"
     inkscape:pagecheckerboard="0"
     inkscape:deskcolor="#d1d1d1"
     inkscape:document-units="mm"
     showgrid="false"
     inkscape:zoom="32.000001"
     inkscape:cx="-0.015625"
     inkscape:cy="7.8437498"
     inkscape:window-width="1920"
     inkscape:window-height="1009"
     inkscape:window-x="-8"
     inkscape:window-y="-8"
     inkscape:window-maximized="1"
     inkscape:current-layer="layer1" /><defs
     id="defs2"><linearGradient
       inkscape:collect="always"
       id="linearGradient990"><stop
         style="stop-color:#a9825a;stop-opacity:1;"
         offset="0"
         id="stop986" /><stop
         style="stop-color:#28220b;stop-opacity:0;"
         offset="1"
         id="stop988" /></linearGradient><linearGradient
       inkscape:collect="always"
       xlink:href="#linearGradient990"
       id="linearGradient992"
       x1="2.1803702"
       y1="2.5700119"
       x2="2.4466167"
       y2="2.5700119"
       gradientUnits="userSpaceOnUse"
       gradientTransform="matrix(1.8701715,1.4838984,0.48954313,-0.61697596,2.9571856,-2.1595816)" /><linearGradient
       id="linearGradient2651"
       inkscape:swatch="solid"><stop
         style="stop-color:#000000;stop-opacity:1;"
         offset="0"
         id="stop2649" /></linearGradient></defs><g
     inkscape:label="Camada 1"
     inkscape:groupmode="layer"
     id="layer1"><g
       id="g424"
       transform="matrix(1.8832357,0,0,0.62128588,-1.8430287,0.73780477)"
       style="fill:#ffdd55" /><path
       id="rect2502"
       style="fill:url(#linearGradient992);fill-opacity:1;stroke:#5a1717;stroke-width:0"
       d="M 8.8432042,-1.579322 7.3685872,0.27915206 8.0536024,0.81454756 8.5718078,0.15518766 8.1656548,-0.32539 8.7422109,-0.13857254 8.6850169,-0.5002971 9.0073813,-0.4892687 9.1958846,-0.5034818 c 0.063225,-0.013631 0.060965,-0.26616337 0.017202,-0.23967362 l 0.091549,-0.0652525 0.048436,-0.1635496 -0.1091598,-0.19859898 -0.090336,-0.1325222 -0.075509,-0.098025 z"
       sodipodi:nodetypes="cccccccccccccccc" /><g
       id="g6921"
       transform="matrix(1.038303,0,0,1.038303,-0.15570809,-0.03620411)"><path
         id="rect2403"
         style="fill:#ffdd55;stroke:#5a1717;stroke-width:0.0233439"
         d="M 2.8833612,0.08901028 1.6453693,1.6524288 c -0.063052,0.079626 0.0496,0.2733899 0.2527566,0.4345854 L 2.3912906,2.4783187 C 2.5944479,2.639515 2.8088244,2.7052339 2.8719547,2.6256701 L 3.1500089,2.1696292 c 0,0 -0.1008045,-0.4172054 -0.2086327,-0.8480047 0.266349,0.048615 0.2588799,0.046525 0.671299,0.1286563 C 3.4824893,1.1164579 3.4830318,1.1127206 3.3807825,0.79559464 3.671297,0.84022588 3.6719585,0.8393516 3.9719164,0.88374431 4.0330034,0.79380856 4.0319174,0.78781992 4.0962433,0.68741584 4.0894717,0.64540786 4.0189015,0.52008409 3.9052065,0.34847088 3.8286895,0.23297471 3.8708648,0.29703538 3.705827,0.04684716 3.345261,0.06422729 3.2273141,0.07259172 2.8833612,0.08901028 Z"
         sodipodi:nodetypes="cssssccccccscc" /><g
         id="g6913"
         transform="matrix(0.88169742,0,0,0.88169742,0.12758521,0.44272378)"><g
           id="g6907"><rect
             style="fill:#808080;stroke:#5a1717;stroke-width:0.0223342"
             id="rect184"
             width="2.2121172"
             height="2.9135079"
             x="-0.26371327"
             y="1.5697252"
             ry="0.40186325"
             transform="matrix(-0.62156412,0.78336329,0.78336329,0.62156412,0,0)" /><rect
             style="fill:#ffd42a;fill-opacity:1;stroke:none;stroke-width:0;stroke-dasharray:none"
             id="rect184-3"
             width="2.0076661"
             height="2.6442323"
             x="-0.16545935"
             y="1.7002519"
             ry="0.36472172"
             transform="matrix(-0.62156412,0.78336329,0.78336329,0.62156412,0,0)" /></g><ellipse
           style="fill:#ffffff;stroke:#5a1717;stroke-width:0;stroke-dasharray:none"
           id="path2730"
           cx="1.3123208"
           cy="2.9794402"
           transform="matrix(-0.62156412,0.78336329,0.78336329,0.62156412,0,0)"
           rx="0.14766017"
           ry="1.0377119" /></g></g><g
       id="g5236"
       transform="matrix(1.1365725,0,0,1.1365725,21.695729,3.0951119)"
       style="fill:#ffffff;fill-opacity:0;stroke:#8a1717;stroke-width:0.232791;stroke-dasharray:none;stroke-opacity:1"><circle
         style="fill:#ffffff;fill-opacity:0;stroke:#8a1717;stroke-width:0.232791;stroke-dasharray:none;stroke-opacity:1"
         id="path292"
         cx="-17.200947"
         cy="-0.83904952"
         r="1.4967093" /><path
         id="path292-5"
         style="fill:#ffffff;fill-opacity:0;stroke:#8a1717;stroke-width:0.232791;stroke-dasharray:none;stroke-opacity:1"
         d="m -18.306091,-1.7906064 1.115113,0.99832885 1.115114,0.9983294"
         sodipodi:nodetypes="ccc" /></g></g></svg>
